Coordinates
version=1
nRows=9
nColumns=38
inDegrees=yes

Units are S.I. units (second, meters, Newtons, ...)
Angles are in degrees.

endheader
time	pelvis_tilt	pelvis_list	pelvis_rotation	pelvis_tx	pelvis_ty	pelvis_tz	hip_flexion_r	hip_adduction_r	hip_rotation_r	knee_angle_r	ankle_angle_r	subtalar_angle_r	mtp_angle_r	hip_flexion_l	hip_adduction_l	hip_rotation_l	knee_angle_l	ankle_angle_l	subtalar_angle_l	mtp_angle_l	lumbar_extension	lumbar_bending	lumbar_rotation	arm_flex_r	arm_add_r	arm_rot_r	elbow_flex_r	pro_sup_r	wrist_flex_r	wrist_dev_r	arm_flex_l	arm_add_l	arm_rot_l	elbow_flex_l	pro_sup_l	wrist_flex_l	wrist_dev_l
      1.74000000	      0.16060557	      0.22490293	     -5.10752639	      0.32236899	      0.96634377	     -0.24372025	     25.58080201	      1.19146785	     -2.15831398	    -51.55995488	      3.86563492	     -5.89696265	      0.00000000	      4.59035136	      6.47795798	      3.59611277	    -18.74237009	     10.02409271	    -11.76775427	      0.00000000	    -11.93561824	     -2.07098871	     -5.18889457	     -2.69699627	     -9.09090755	     29.60995063	     47.27502257	     40.80224546	      0.00000000	      0.00000000	      2.96420421	     -7.18311857	     19.73272506	     49.28643870	     40.80224546	      0.00000000	      0.00000000
      1.75000000	      0.04582862	      0.23366933	     -4.78972065	      0.33277022	      0.96584954	     -0.24397871	     26.41215370	      0.88065218	     -3.70875717	    -48.93871215	      3.00600135	     -6.53885090	      0.00000000	      3.86471994	      6.51748965	      3.82822826	    -18.42668469	     10.36657333	    -11.57485510	      0.00000000	    -11.81608039	     -2.04217639	     -5.52072593	     -3.21992381	     -9.15020787	     29.59191263	     47.09932336	     40.82180548	      0.00000000	      0.00000000	      3.55417218	     -7.15461013	     19.80771975	     49.52750243	     40.82180548	      0.00000000	      0.00000000
      1.76000000	     -0.09173666	      0.51327525	     -4.63634589	      0.34309211	      0.96494213	     -0.24408697	     26.94961756	      0.65169524	     -4.06312075	    -45.89596138	      2.93408583	     -6.53501195	      0.00000000	      3.35125208	      6.86298191	      3.83743148	    -18.43856577	     10.79013930	    -11.61091620	      0.00000000	    -11.62922829	     -2.33573077	     -5.82267143	     -3.45716189	     -9.19736463	     29.58316555	     47.01994523	     40.82705419	      0.00000000	      0.00000000	      3.88149700	     -7.10815519	     19.83087701	     49.65978637	     40.82705419	      0.00000000	      0.00000000
      1.77000000	     -0.08055744	      0.21164780	     -4.09984859	      0.35373985	      0.96434651	     -0.24432829	     26.58806974	      1.07725065	     -4.42305113	    -41.82627828	      3.48060730	     -6.87124830	      0.00000000	      2.45635692	      6.54126702	      4.39818449	    -18.18756864	     11.46527279	    -11.11138845	      0.00000000	    -11.67798695	     -1.94900243	     -6.11957759	     -4.23729501	     -9.19246434	     29.41104657	     46.59970126	     40.86936001	      0.00000000	      0.00000000	      4.79664699	     -7.11863207	     20.15986068	     50.17333189	     40.86936001	      0.00000000	      0.00000000
      1.78000000	     -0.28897643	      0.41264829	     -3.75272412	      0.36421477	      0.96320066	     -0.24455394	     26.92366268	      0.89011498	     -5.03682078	    -38.34296534	      3.26403943	     -6.82680103	      0.00000000	      1.80092090	      6.75029435	      4.68933095	    -17.81816991	     11.64520658	    -10.80780118	      0.00000000	    -11.42684300	     -2.11838221	     -6.52980293	     -4.65748106	     -9.15941461	     29.35804085	     46.41949812	     40.88441804	      0.00000000	      0.00000000	      5.31086949	     -7.11800350	     20.27124847	     50.42329454	     40.88441804	      0.00000000	      0.00000000
      1.79000000	     -0.24245878	      0.42723669	     -3.31460353	      0.37490621	      0.96231530	     -0.24476732	     26.78209452	      0.91029928	     -5.51439419	    -34.65536035	      2.87102985	     -6.54767160	      0.00000000	      0.85567020	      6.75546147	      5.03585633	    -17.49205537	     12.24327589	    -10.48855222	      0.00000000	    -11.48325299	     -2.10822176	     -6.87079712	     -5.08441431	     -8.51778185	     27.62343973	     45.15652302	     41.15986590	      0.00000000	      0.00000000	      5.94897085	     -7.76803142	     22.61370678	     51.54310230	     41.15986590	      0.00000000	      0.00000000
      1.80000000	     -0.26405692	      0.54498224	     -2.86345545	      0.38562633	      0.96121810	     -0.24504996	     26.79296708	      0.77198882	     -6.28186973	    -31.16954210	      2.46330296	     -5.92217946	      0.00000000	      0.05487513	      6.82981856	      5.23527842	    -17.24675684	     12.70524561	    -10.19098872	      0.00000000	    -11.48152509	     -2.19715231	     -7.23890335	     -5.59742338	     -8.49445779	     27.57685293	     45.06164274	     41.19177587	      0.00000000	      0.00000000	      6.56390942	     -7.67278614	     22.70920281	     51.68711660	     41.19177587	      0.00000000	      0.00000000
      1.81000000	     -0.23532741	      0.64604741	     -2.36228992	      0.39642182	      0.96009680	     -0.24543400	     26.71951563	      0.67410360	     -6.85013191	    -27.80313963	      2.12922382	     -4.88551455	      0.00000000	     -0.82064399	      6.94335987	      5.74393692	    -17.04643515	     13.07987360	     -9.87480343	      0.00000000	    -11.52868451	     -2.25020702	     -7.63247019	     -6.05704277	     -8.43387077	     27.46819933	     44.90046725	     41.22469375	      0.00000000	      0.00000000	      7.16592738	     -7.58464105	     22.86297167	     51.88112184	     41.22469375	      0.00000000	      0.00000000
      1.82000000	     -0.14960413	      0.78087410	     -1.82818136	      0.40732819	      0.95896718	     -0.24587634	     26.63745756	      0.52733599	     -7.33816048	    -24.74583652	      2.02756740	     -3.38077287	      0.00000000	     -1.71834535	      7.06938756	      5.92502688	    -16.87304519	     13.46412437	     -9.66453561	      0.00000000	    -11.64170407	     -2.32525705	     -8.09189276	     -6.46880625	     -8.32602472	     27.19933486	     44.63622844	     41.27446323	      0.00000000	      0.00000000	      7.75890417	     -7.49774386	     23.17220564	     52.11428631	     41.27446323	      0.00000000	      0.00000000
